<svg width="12" height="12" viewBox="0 0 12 12" fill="none" xmlns="http://www.w3.org/2000/svg">
<path d="M6.00005 11.2C8.87193 11.2 11.2 8.87193 11.2 6.00005C11.2 3.12817 8.87193 0.800049 6.00005 0.800049C3.12817 0.800049 0.800049 3.12817 0.800049 6.00005C0.800049 7.31196 1.28588 8.5104 2.08744 9.42528L1.20005 11.2L6.00005 11.2Z" fill="#C2CCDE" fill-opacity="0.25"/>
<path d="M5.90005 2.80005V7.28005M5.90005 8.72002V9.04002M11.2 6.00005C11.2 8.87193 8.87193 11.2 6.00005 11.2L1.20005 11.2L2.08743 9.42528C1.28588 8.5104 0.800049 7.31196 0.800049 6.00005C0.800049 3.12817 3.12817 0.800049 6.00005 0.800049C8.87193 0.800049 11.2 3.12817 11.2 6.00005Z" stroke="#414141" stroke-linecap="round" stroke-linejoin="round"/>
</svg>
