<svg width="10" height="14" viewBox="0 0 10 14" fill="none" xmlns="http://www.w3.org/2000/svg">
<path d="M0.600098 2.1999C0.600098 1.75807 0.95827 1.3999 1.4001 1.3999H8.6001C9.04192 1.3999 9.4001 1.75807 9.4001 2.1999V11.7999C9.4001 12.2417 9.04192 12.5999 8.6001 12.5999H1.4001C0.95827 12.5999 0.600098 12.2417 0.600098 11.7999V2.1999Z" fill="#C2CCDE" fill-opacity="0.25"/>
<path d="M2.6001 3.7999H7.4001M2.6001 5.3999H5.8001M2.6001 6.9999H7.4001M2.6001 8.5999H5.8001M2.6001 10.1999H7.4001M1.4001 12.5999H8.6001C9.04192 12.5999 9.4001 12.2417 9.4001 11.7999V2.1999C9.4001 1.75807 9.04192 1.3999 8.6001 1.3999H1.4001C0.95827 1.3999 0.600098 1.75807 0.600098 2.1999V11.7999C0.600098 12.2417 0.95827 12.5999 1.4001 12.5999Z" stroke="#414141" stroke-linecap="round" stroke-linejoin="round"/>
</svg>
