<svg width="14" height="12" viewBox="0 0 14 12" fill="none" xmlns="http://www.w3.org/2000/svg">
<path d="M3.99345 5.86138C3.91852 6.21792 3.68809 6.52229 3.36525 6.69114C3.01123 6.8763 2.58897 6.8763 2.23495 6.69114C1.9121 6.52229 1.68167 6.21792 1.60674 5.86138L1.58076 5.73776C1.50364 5.3708 1.5864 4.98837 1.80833 4.68613L1.85041 4.62882C2.07239 4.32651 2.42504 4.14795 2.8001 4.14795C3.17515 4.14795 3.5278 4.32651 3.74979 4.62882L3.79186 4.68613C4.01379 4.98837 4.09655 5.3708 4.01943 5.73776L3.99345 5.86138Z" fill="#C2CCDE" fill-opacity="0.25"/>
<path d="M0.600098 9.22672C0.600098 9.43291 0.767245 9.60006 0.973432 9.60006H3.26223C3.40939 8.94625 3.80977 8.37466 4.37511 8.01308C4.27336 7.9405 4.1614 7.88 4.0409 7.83402L3.95653 7.80182C3.21177 7.51761 2.38843 7.51761 1.64366 7.80182L1.55929 7.83402C0.981698 8.05443 0.600098 8.6085 0.600098 9.22672Z" fill="#C2CCDE" fill-opacity="0.25"/>
<path d="M13.0268 9.6001H10.738C10.5908 8.94629 10.1905 8.37469 9.62511 8.0131C9.72686 7.94053 9.83881 7.88004 9.95929 7.83406L10.0437 7.80186C10.7884 7.51765 11.6118 7.51765 12.3565 7.80186L12.4409 7.83406C13.0185 8.05448 13.4001 8.60854 13.4001 9.22677C13.4001 9.43295 13.233 9.6001 13.0268 9.6001Z" fill="#C2CCDE" fill-opacity="0.25"/>
<path d="M10.0067 5.86142C10.0817 6.21797 10.3121 6.52233 10.6349 6.69118C10.989 6.87634 11.4112 6.87634 11.7652 6.69118C12.0881 6.52233 12.3185 6.21797 12.3935 5.86142L12.4194 5.7378C12.4966 5.37085 12.4138 4.98841 12.1919 4.68617L12.1498 4.62886C11.9278 4.32655 11.5752 4.14799 11.2001 4.14799C10.825 4.14799 10.4724 4.32655 10.2504 4.62886L10.2083 4.68617C9.9864 4.98841 9.90364 5.37085 9.98076 5.7378L10.0067 5.86142Z" fill="#C2CCDE" fill-opacity="0.25"/>
<path d="M10.1601 10.8001H3.8401C3.48664 10.8001 3.2001 10.5136 3.2001 10.1601C3.2001 9.10078 3.85536 8.15192 4.846 7.77672L5.01231 7.71373C6.29311 7.22864 7.70709 7.22864 8.98788 7.71373L9.15419 7.77672C10.1448 8.15192 10.8001 9.10078 10.8001 10.1601C10.8001 10.5136 10.5136 10.8001 10.1601 10.8001Z" fill="#C2CCDE" fill-opacity="0.25"/>
<path d="M6.02836 5.81568C6.63759 6.13192 7.3626 6.13192 7.97183 5.81568C8.53217 5.52482 8.93275 4.99824 9.06354 4.3806L9.10447 4.18729C9.23871 3.55333 9.09493 2.89224 8.70952 2.3713L8.64346 2.28201C8.25797 1.76097 7.64823 1.45361 7.0001 1.45361C6.35196 1.45361 5.74222 1.76097 5.35674 2.28201L5.29068 2.3713C4.90526 2.89224 4.76149 3.55333 4.89573 4.18729L4.93666 4.3806C5.06744 4.99824 5.46802 5.52482 6.02836 5.81568Z" fill="#C2CCDE" fill-opacity="0.25"/>
<path d="M3.99345 5.86138C3.91852 6.21792 3.68809 6.52229 3.36525 6.69114C3.01123 6.8763 2.58897 6.8763 2.23495 6.69114C1.9121 6.52229 1.68167 6.21792 1.60674 5.86138L1.58076 5.73776C1.50364 5.3708 1.5864 4.98837 1.80833 4.68613L1.85041 4.62882C2.07239 4.32651 2.42504 4.14795 2.8001 4.14795C3.17515 4.14795 3.5278 4.32651 3.74979 4.62882L3.79186 4.68613C4.01379 4.98837 4.09655 5.3708 4.01943 5.73776L3.99345 5.86138Z" stroke="#414141" stroke-linecap="round" stroke-linejoin="round"/>
<path d="M0.600098 9.22672C0.600098 9.43291 0.767245 9.60006 0.973432 9.60006H3.26223C3.40939 8.94625 3.80977 8.37466 4.37511 8.01308C4.27336 7.9405 4.1614 7.88 4.0409 7.83402L3.95653 7.80182C3.21177 7.51761 2.38843 7.51761 1.64366 7.80182L1.55929 7.83402C0.981698 8.05443 0.600098 8.6085 0.600098 9.22672Z" stroke="#414141" stroke-linecap="round" stroke-linejoin="round"/>
<path d="M13.0268 9.6001H10.738C10.5908 8.94629 10.1905 8.37469 9.62511 8.0131C9.72686 7.94053 9.83881 7.88004 9.95929 7.83406L10.0437 7.80186C10.7884 7.51765 11.6118 7.51765 12.3565 7.80186L12.4409 7.83406C13.0185 8.05448 13.4001 8.60854 13.4001 9.22677C13.4001 9.43295 13.233 9.6001 13.0268 9.6001Z" stroke="#414141" stroke-linecap="round" stroke-linejoin="round"/>
<path d="M10.0067 5.86142C10.0817 6.21797 10.3121 6.52233 10.6349 6.69118C10.989 6.87634 11.4112 6.87634 11.7652 6.69118C12.0881 6.52233 12.3185 6.21797 12.3935 5.86142L12.4194 5.7378C12.4966 5.37085 12.4138 4.98841 12.1919 4.68617L12.1498 4.62886C11.9278 4.32655 11.5752 4.14799 11.2001 4.14799C10.825 4.14799 10.4724 4.32655 10.2504 4.62886L10.2083 4.68617C9.9864 4.98841 9.90364 5.37085 9.98076 5.7378L10.0067 5.86142Z" stroke="#414141" stroke-linecap="round" stroke-linejoin="round"/>
<path d="M10.1601 10.8001H3.8401C3.48664 10.8001 3.2001 10.5136 3.2001 10.1601C3.2001 9.10078 3.85536 8.15192 4.846 7.77672L5.01231 7.71373C6.29311 7.22864 7.70709 7.22864 8.98788 7.71373L9.15419 7.77672C10.1448 8.15192 10.8001 9.10078 10.8001 10.1601C10.8001 10.5136 10.5136 10.8001 10.1601 10.8001Z" stroke="#414141" stroke-linecap="round" stroke-linejoin="round"/>
<path d="M6.02836 5.81568C6.63759 6.13192 7.3626 6.13192 7.97183 5.81568C8.53217 5.52482 8.93275 4.99824 9.06354 4.3806L9.10447 4.18729C9.23871 3.55333 9.09493 2.89224 8.70952 2.3713L8.64346 2.28201C8.25797 1.76097 7.64823 1.45361 7.0001 1.45361C6.35196 1.45361 5.74222 1.76097 5.35674 2.28201L5.29068 2.3713C4.90526 2.89224 4.76149 3.55333 4.89573 4.18729L4.93666 4.3806C5.06744 4.99824 5.46802 5.52482 6.02836 5.81568Z" stroke="#414141" stroke-linecap="round" stroke-linejoin="round"/>
</svg>
