<svg width="14" height="14" viewBox="0 0 14 14" fill="none" xmlns="http://www.w3.org/2000/svg">
<path d="M5.21059 12.9999C4.17504 12.6907 3.23719 12.1187 2.48832 11.3395C2.72927 11.0537 2.87947 10.7026 2.9197 10.331C2.95993 9.95933 2.88837 9.58416 2.71417 9.25344C2.53997 8.92272 2.27105 8.6515 1.94183 8.47448C1.61261 8.29746 1.23806 8.2227 0.866112 8.25975C0.781375 7.84468 0.738793 7.42212 0.739015 6.99849C0.739015 6.34422 0.83919 5.71311 1.02577 5.1202H1.05206C1.37129 5.1203 1.68529 5.03904 1.96439 4.88408C2.24349 4.72913 2.47849 4.50559 2.64721 4.23459C2.81592 3.96358 2.91278 3.65404 2.92863 3.3352C2.94449 3.01637 2.87882 2.69875 2.73782 2.41234C3.47179 1.7289 4.35943 1.23209 5.32579 0.963867C5.48306 1.27266 5.72268 1.53192 6.01816 1.71297C6.31363 1.89403 6.65343 1.98981 6.99997 1.98972C7.3465 1.98981 7.6863 1.89403 7.98177 1.71297C8.27725 1.53192 8.51688 1.27266 8.67414 0.963867C9.6405 1.23209 10.5281 1.7289 11.2621 2.41234C11.1201 2.70075 11.0545 3.02079 11.0715 3.34182C11.0886 3.66286 11.1878 3.97414 11.3596 4.24587C11.5314 4.5176 11.7701 4.74068 12.0528 4.89377C12.3355 5.04686 12.6527 5.12482 12.9742 5.1202C13.1648 5.72805 13.2615 6.36144 13.2609 6.99849C13.2609 7.43049 13.2171 7.85248 13.1338 8.26007C12.7619 8.22301 12.3873 8.29777 12.0581 8.47479C11.7289 8.65181 11.46 8.92303 11.2858 9.25375C11.1116 9.58447 11.04 9.95965 11.0802 10.3313C11.1205 10.7029 11.2707 11.0541 11.5116 11.3398C10.7627 12.1189 9.82486 12.6908 8.78935 12.9999C8.66774 12.6209 8.42894 12.2903 8.10735 12.0557C7.78576 11.8212 7.398 11.6948 6.99997 11.6948C6.60193 11.6948 6.21417 11.8212 5.89258 12.0557C5.57099 12.2903 5.33219 12.6209 5.21059 12.9999Z" stroke="#414141" stroke-linejoin="round"/>
<path d="M6.99993 9.1898C7.2877 9.1898 7.57265 9.13311 7.83851 9.02299C8.10438 8.91287 8.34595 8.75145 8.54943 8.54797C8.75292 8.34448 8.91433 8.10291 9.02445 7.83705C9.13458 7.57118 9.19126 7.28623 9.19126 6.99846C9.19126 6.71069 9.13458 6.42574 9.02445 6.15988C8.91433 5.89401 8.75292 5.65244 8.54943 5.44896C8.34595 5.24547 8.10438 5.08406 7.83851 4.97393C7.57265 4.86381 7.2877 4.80713 6.99993 4.80713C6.41875 4.80713 5.86138 5.038 5.45042 5.44896C5.03947 5.85991 4.80859 6.41728 4.80859 6.99846C4.80859 7.57964 5.03947 8.13701 5.45042 8.54797C5.86138 8.95892 6.41875 9.1898 6.99993 9.1898Z" stroke="#414141" stroke-linejoin="round"/>
</svg>
