<svg width="14" height="14" viewBox="0 0 14 14" fill="none" xmlns="http://www.w3.org/2000/svg">
<path d="M6.9999 1.3999L7.6269 1.43511L8.24602 1.54031L8.84947 1.71416L9.42965 1.95448L9.97928 2.25825L10.4914 2.62165L10.9597 3.0401L11.3782 3.50836L11.7416 4.02052L12.0453 4.57015L12.2856 5.15034L12.4595 5.75379L12.5647 6.3729L12.5999 6.9999L12.5647 7.6269L12.4595 8.24602L12.2856 8.84947L12.0453 9.42965L11.7416 9.97928L11.3782 10.4914L10.9597 10.9597L10.4914 11.3782L9.97928 11.7416L9.42965 12.0453L8.84947 12.2856L8.24602 12.4595L7.6269 12.5647L6.9999 12.5999L6.3729 12.5647L5.75379 12.4595L5.15034 12.2856L4.57015 12.0453L4.02052 11.7416L3.50836 11.3782L3.0401 10.9597L2.62165 10.4914L2.25825 9.97928L1.95448 9.42965L1.71416 8.84947L1.54031 8.24602L1.43511 7.6269L1.3999 6.9999L1.43511 6.3729L1.54031 5.75379L1.71416 5.15034L1.95448 4.57015L2.25825 4.02052L2.62165 3.50836L3.0401 3.0401L3.50836 2.62165L4.02052 2.25825L4.57015 1.95448L5.15034 1.71416L5.75379 1.54031L6.3729 1.43511L6.9999 1.3999Z" fill="#C2CCDE" fill-opacity="0.25"/>
<path d="M6.9999 8.2799V8.20384C6.9999 7.73712 7.24584 7.30494 7.64709 7.06655L7.99491 6.8599C8.494 6.56339 8.7999 6.02583 8.7999 5.44531C8.7999 4.53658 8.06323 3.7999 7.15449 3.7999H6.9999C6.00579 3.7999 5.1999 4.60579 5.1999 5.5999V5.70154M6.9999 9.71988V10.0399M6.9999 1.3999L7.6269 1.43511L8.24602 1.54031L8.84947 1.71416L9.42965 1.95448L9.97928 2.25825L10.4914 2.62165L10.9597 3.0401L11.3782 3.50836L11.7416 4.02052L12.0453 4.57015L12.2856 5.15034L12.4595 5.75379L12.5647 6.3729L12.5999 6.9999L12.5647 7.6269L12.4595 8.24602L12.2856 8.84947L12.0453 9.42965L11.7416 9.97928L11.3782 10.4914L10.9597 10.9597L10.4914 11.3782L9.97928 11.7416L9.42965 12.0453L8.84947 12.2856L8.24602 12.4595L7.6269 12.5647L6.9999 12.5999L6.3729 12.5647L5.75379 12.4595L5.15034 12.2856L4.57015 12.0453L4.02052 11.7416L3.50836 11.3782L3.0401 10.9597L2.62165 10.4914L2.25825 9.97928L1.95448 9.42965L1.71416 8.84947L1.54031 8.24602L1.43511 7.6269L1.3999 6.9999L1.43511 6.3729L1.54031 5.75379L1.71416 5.15034L1.95448 4.57015L2.25825 4.02052L2.62165 3.50836L3.0401 3.0401L3.50836 2.62165L4.02052 2.25825L4.57015 1.95448L5.15034 1.71416L5.75379 1.54031L6.3729 1.43511L6.9999 1.3999Z" stroke="#414141" stroke-linecap="round" stroke-linejoin="round"/>
</svg>
