<svg width="12" height="22" viewBox="0 0 12 22" fill="none" xmlns="http://www.w3.org/2000/svg">
<path d="M1.8001 20.5999C1.13736 20.5999 0.600098 20.0626 0.600098 19.3999L0.600098 4.99991C0.600098 4.33716 1.13736 3.79991 1.8001 3.79991L10.2001 3.7999C10.8628 3.7999 11.4001 4.33716 11.4001 4.9999L11.4001 19.3999C11.4001 20.0626 10.8628 20.5999 10.2001 20.5999H1.8001Z" fill="#C2CCDE" fill-opacity="0.25"/>
<path d="M8.40009 1.3999L3.60009 1.3999M4.2001 15.1999L7.8001 12.1999L4.2001 12.1999L7.8001 9.19991M11.4001 19.3999L11.4001 4.9999C11.4001 4.33716 10.8628 3.7999 10.2001 3.7999L1.8001 3.79991C1.13736 3.79991 0.600098 4.33716 0.600098 4.99991L0.600098 19.3999C0.600098 20.0626 1.13736 20.5999 1.8001 20.5999H10.2001C10.8628 20.5999 11.4001 20.0626 11.4001 19.3999Z" stroke="#414141" stroke-linecap="round" stroke-linejoin="round"/>
</svg>
