<svg width="16" height="16" viewBox="0 0 16 16" fill="none" xmlns="http://www.w3.org/2000/svg">
<path d="M0.5 13.2069V14.9998C0.5 15.1325 0.552679 15.2596 0.646447 15.3534C0.740215 15.4472 0.867392 15.4998 1 15.4998H2.793C2.92535 15.4998 3.05229 15.4473 3.146 15.3538L11.646 6.85385L9.146 4.35385L0.646 12.8538C0.552531 12.9476 0.500028 13.0745 0.5 13.2069ZM11.09 2.40985L13.59 4.90985L14.793 3.70685C14.9805 3.51932 15.0858 3.26501 15.0858 2.99985C15.0858 2.73468 14.9805 2.48038 14.793 2.29285L13.707 1.20685C13.5195 1.01938 13.2652 0.914062 13 0.914063C12.7348 0.914062 12.4805 1.01938 12.293 1.20685L11.09 2.40985Z" stroke="#414141"/>
</svg>
